<?xml version="1.0" standalone="no"?>
<!DOCTYPE svg PUBLIC "-//W3C//DTD SVG 20010904//EN"
 "http://www.w3.org/TR/2001/REC-SVG-20010904/DTD/svg10.dtd">
<svg version="1.0" xmlns="http://www.w3.org/2000/svg"
 width="548.000000pt" height="110.000000pt" viewBox="0 0 548.000000 110.000000"
 preserveAspectRatio="xMidYMid meet">

<g transform="translate(0.000000,110.000000) scale(0.100000,-0.100000)"
fill="#000000" stroke="none">
<path d="M302 1021 c-104 -36 -142 -104 -142 -253 l0 -88 -70 0 -70 0 0 -80 0
-80 70 0 70 0 0 -260 0 -260 100 0 100 0 0 260 0 260 75 0 c52 0 77 4 80 13 2
6 6 42 8 80 l5 67 -84 0 -84 0 0 80 c0 97 15 119 83 122 23 0 47 2 52 3 6 2
16 3 23 4 8 1 12 22 12 70 0 63 -2 69 -22 75 -45 12 -154 5 -206 -13z"/>
<path d="M2765 1033 c-16 -2 -58 -6 -92 -9 l-63 -6 0 -509 0 -509 90 0 c83 0
90 2 91 20 1 11 3 29 4 40 1 11 3 26 4 32 0 7 15 -4 32 -25 47 -57 83 -70 191
-65 85 3 97 6 138 35 87 59 127 178 118 347 -10 196 -104 301 -268 301 -84 -1
-127 -18 -172 -69 l-28 -31 0 222 c0 122 -3 223 -7 225 -5 2 -21 2 -38 1z
m261 -518 c40 -26 57 -78 57 -175 1 -134 -33 -187 -126 -197 -54 -5 -104 20
-129 67 -13 26 -18 57 -18 124 0 107 22 164 73 190 39 20 105 16 143 -9z"/>
<path d="M5015 1033 c-22 -2 -64 -6 -92 -9 l-53 -5 0 -510 0 -509 95 0 c114 0
109 -9 103 179 -3 72 -2 135 2 141 4 6 27 -20 53 -62 25 -40 72 -114 104 -165
l58 -92 98 -1 c61 0 97 4 97 10 0 6 -18 38 -40 71 -22 33 -40 62 -40 64 0 2
-27 44 -60 93 -33 50 -60 96 -60 104 0 14 36 73 135 228 23 36 48 75 54 88
l12 23 -102 -3 -103 -3 -73 -115 c-40 -63 -85 -136 -100 -163 -14 -26 -28 -45
-30 -43 -3 2 -4 155 -3 339 0 185 -3 337 -7 339 -4 2 -26 2 -48 1z"/>
<path d="M736 675 c-59 -21 -108 -65 -139 -126 -72 -143 -54 -373 36 -476 48
-54 97 -73 195 -73 96 0 125 11 170 67 l31 38 1 -52 0 -53 95 0 95 0 0 340 0
340 -95 0 -95 0 0 -50 c0 -27 -3 -50 -7 -50 -5 0 -19 16 -32 35 -46 67 -159
94 -255 60z m209 -149 c51 -21 68 -64 73 -176 3 -84 1 -100 -20 -140 -27 -54
-79 -78 -142 -66 -79 15 -111 84 -104 222 6 119 44 172 126 173 18 1 48 -5 67
-13z"/>
<path d="M1565 685 c-5 -2 -28 -9 -51 -14 -22 -6 -59 -23 -82 -39 -87 -58
-123 -142 -123 -291 -1 -163 46 -257 155 -311 56 -28 66 -30 181 -30 102 0
174 10 194 26 2 2 -5 33 -15 69 -18 62 -21 66 -44 61 -132 -31 -221 -10 -259
62 -18 34 -25 160 -12 208 23 87 98 126 204 107 34 -6 68 -12 76 -14 9 -3 21
16 35 59 20 62 20 64 2 77 -27 20 -108 35 -184 34 -37 0 -71 -2 -77 -4z"/>
<path d="M2107 680 c-82 -21 -153 -74 -187 -141 -28 -54 -44 -161 -36 -246 13
-142 61 -223 161 -269 45 -22 64 -24 196 -24 157 0 249 17 249 46 0 25 -22
104 -30 109 -5 3 -37 -2 -72 -10 -80 -19 -189 -19 -233 -1 -38 16 -62 47 -71
94 l-6 32 216 0 216 0 6 26 c9 35 -3 148 -23 212 -20 66 -79 134 -135 157 -50
20 -195 29 -251 15z m168 -136 c35 -16 65 -71 65 -119 l0 -25 -131 0 -132 0 7
43 c9 54 30 85 69 102 42 19 82 18 122 -1z"/>
<path d="M3595 680 c-97 -24 -177 -92 -208 -176 -57 -160 -15 -371 88 -447 69
-50 98 -57 224 -57 129 0 169 12 233 68 77 68 117 237 89 373 -15 73 -66 156
-116 190 -74 51 -216 73 -310 49z m182 -165 c41 -27 53 -67 55 -174 1 -81 -3
-105 -18 -133 -53 -92 -200 -88 -240 7 -21 52 -19 211 4 255 35 66 132 88 199
45z"/>
<path d="M4330 676 c-80 -30 -93 -38 -135 -81 -63 -64 -89 -153 -83 -280 8
-155 60 -241 178 -294 60 -28 252 -30 308 -4 69 31 110 72 144 141 32 64 33
71 33 182 -1 101 -4 121 -26 170 -25 54 -69 107 -115 137 -61 40 -232 56 -304
29z m197 -163 c39 -26 53 -71 53 -175 0 -110 -17 -154 -70 -180 -72 -37 -158
-10 -186 57 -19 47 -19 216 0 254 16 29 48 55 81 64 31 9 94 -2 122 -20z"/>
</g>
</svg>
